<svg xmlns="http://www.w3.org/2000/svg" width="512" height="512" viewBox="0 0 512 512">
  <defs>
    <linearGradient id="bg" x1="70" y1="20" x2="445" y2="490" gradientUnits="userSpaceOnUse">
      <stop stop-color="#55B7FF"/>
      <stop offset="0.48" stop-color="#087DFF"/>
      <stop offset="1" stop-color="#6558E8"/>
    </linearGradient>
    <linearGradient id="shine" x1="100" y1="50" x2="320" y2="380" gradientUnits="userSpaceOnUse">
      <stop stop-color="white" stop-opacity="0.42"/>
      <stop offset="0.7" stop-color="white" stop-opacity="0"/>
    </linearGradient>
    <filter id="shadow" x="-30%" y="-30%" width="160%" height="180%">
      <feDropShadow dx="0" dy="18" stdDeviation="15" flood-color="#0C3B8F" flood-opacity="0.28"/>
    </filter>
  </defs>
  <rect width="512" height="512" fill="url(#bg)"/>
  <rect x="8" y="8" width="496" height="496" rx="104" fill="none" stroke="white" stroke-opacity="0.32" stroke-width="6"/>
  <path d="M0 0H512V256C360 162 175 170 0 309V0Z" fill="url(#shine)"/>
  <g filter="url(#shadow)" fill="#FFFFFF" fill-opacity="0.12" stroke="white" stroke-width="18" stroke-linejoin="round">
    <rect x="141" y="115" width="190" height="270" rx="45" transform="rotate(-10 141 115)"/>
    <rect x="171" y="117" width="190" height="270" rx="45" transform="rotate(8 171 117)"/>
  </g>
  <path d="M256 203C277 174 323 194 309 229C302 247 278 261 256 281C234 261 210 247 203 229C189 194 235 174 256 203Z" fill="white"/>
</svg>
