<svg xmlns="http://www.w3.org/2000/svg" viewBox="0 0 800 620" role="img" aria-labelledby="title desc">
  <title id="title">El cartero solar</title>
  <desc id="desc">Ilustración de un cartero espacial con la visera sin colorear</desc>
  <defs>
    <linearGradient id="sky" x1="0" x2="1" y1="0" y2="1">
      <stop offset="0" stop-color="#fff5d7"/><stop offset="1" stop-color="#f3dff2"/>
    </linearGradient>
    <linearGradient id="jacket" x1="0" x2="0" y1="0" y2="1">
      <stop offset="0" stop-color="#5577c8"/><stop offset="1" stop-color="#344b9a"/>
    </linearGradient>
  </defs>
  <rect width="800" height="620" rx="48" fill="url(#sky)"/>
  <circle cx="115" cy="106" r="58" fill="#f4c542" opacity=".96"/>
  <path d="M115 25v-22M115 209v-22M34 106H12M218 106h-22M58 49 42 33M172 163l-16-16M172 49l16-16M58 163l-16 16" stroke="#e6a932" stroke-width="12" stroke-linecap="round"/>
  <circle cx="694" cy="95" r="22" fill="#fff" opacity=".72"/>
  <circle cx="650" cy="120" r="12" fill="#fff" opacity=".72"/>
  <path d="M93 521c70-42 159-48 236-18 108 42 196 33 317-18 43-18 86-18 124-2v139H0V528c31 5 62 2 93-7Z" fill="#d5ecdc"/>
  <path d="M258 501c-6-22 6-42 27-47l230-56c31-8 59 12 63 42l7 60-327 64Z" fill="url(#jacket)" stroke="#2b2a3b" stroke-width="10"/>
  <path d="M324 479c24 10 58 12 92 5l-14 57c-28 7-58 5-83-4Z" fill="#2b2a3b" opacity=".18"/>
  <path d="M496 473c10-17 26-28 47-31l82 31c21 8 29 34 17 52l-15 23-139-42Z" fill="#f6c9a3" stroke="#2b2a3b" stroke-width="10"/>
  <path d="M272 492 199 527l-11-21c-9-18 2-39 20-46l65-26Z" fill="#f6c9a3" stroke="#2b2a3b" stroke-width="10"/>
  <circle cx="387" cy="267" r="129" fill="#f6c9a3" stroke="#2b2a3b" stroke-width="10"/>
  <path d="M273 244c2-89 64-140 130-140 75 0 120 53 113 143-39-42-95-61-161-49-30 6-57 22-82 46Z" fill="#343052" stroke="#2b2a3b" stroke-width="10"/>
  <path d="M280 190h215c27 0 49 22 49 49v50H231v-50c0-27 22-49 49-49Z" fill="none" stroke="none"/>
  <path d="M301 221h173c13 0 24 11 24 24v18H277v-18c0-13 11-24 24-24Z" fill="none"/>
  <circle cx="338" cy="350" r="13" fill="#2b2a3b"/>
  <circle cx="439" cy="350" r="13" fill="#2b2a3b"/>
  <path d="M357 391c22 17 49 17 70 0" fill="none" stroke="#2b2a3b" stroke-width="9" stroke-linecap="round"/>
  <path d="M294 550 279 594h75l-2-56Z" fill="#f4c542" stroke="#2b2a3b" stroke-width="10"/>
  <path d="m500 531 3 63h76l-17-70Z" fill="#f4c542" stroke="#2b2a3b" stroke-width="10"/>
</svg>
